<svg width="14" height="15" viewBox="0 0 14 15" fill="none" xmlns="http://www.w3.org/2000/svg">
<path fill-rule="evenodd" clip-rule="evenodd" d="M11.142 4.047V5.19701C12.4338 5.60022 13.375 6.7696 13.375 8.1663V11.869C13.375 13.5981 11.9415 15 10.1742 15H3.8266C2.05852 15 0.625 13.5981 0.625 11.869V8.1663C0.625 6.7696 1.56696 5.60022 2.85796 5.19701V4.047C2.86559 1.81109 4.7175 0 6.98857 0C9.29012 0 11.142 1.81109 11.142 4.047ZM7.00381 1.30428C8.55088 1.30428 9.80835 2.53404 9.80835 4.047V5.03528H4.19165V4.0321C4.19927 2.52658 5.45674 1.30428 7.00381 1.30428ZM7.66684 10.8412C7.66684 11.2064 7.36962 11.4971 6.99619 11.4971C6.63038 11.4971 6.33316 11.2064 6.33316 10.8412V9.18662C6.33316 8.82888 6.63038 8.53821 6.99619 8.53821C7.36962 8.53821 7.66684 8.82888 7.66684 9.18662V10.8412Z" fill="#8C8C8C"/>
</svg>
